# xmcd
#
# Track frame offsets:
#	150
#	13669
#	31558
#	50290
#	69952
#	87691
#	104444
#	121332
#	139436
#	152878
#	168232
#	181019
#	194307
#	209440
#	227176
#	243839
#	258607
#	276304
#	292534
#
# Disc length: 4103 seconds
#
# Revision: 1
# Processed by: cddbd v1.5.2PL0 Copyright (c) Steve Scherf et al.
# Submitted via: audiograbber 1.83.01
#
DISCID=08100513
DTITLE=Various Artist - Hott Country 162
DYEAR=2009
DGENRE=Country
TTITLE0=Brooks and Dunn Feat Billy Gibson - Honky Tonk Stomp
TTITLE1=Sugarland - Joey
TTITLE2=Lost Trailers - All Is Love
TTITLE3=Alan Jackson - I Still Like Bologna
TTITLE4=Derks Bentley - I Wanna Make You Close Your Eyes
TTITLE5=Emerson Drive - I Love This Road
TTITLE6=Miranda Lambert - White Liar ( Single Edit )
TTITLE7=Jason Michael Carroll - Hurry Home
TTITLE8=Craig Morgan - Bonfire
TTITLE9=Jesse Lee - It's A Girl Thing
TTITLE10=Brad Johner - Lookin' At You
TTITLE11=Kal Hourd - Beautiful Sound
TTITLE12=Victoria Banks - When You Can Fly
TTITLE13=Eli Young Band - Radio Waves
TTITLE14=One More Girl - When It Ain't Rainin'
TTITLE15=Kenny Chesney and Dave Matthews - I'm Alive
TTITLE16=Gary Allan - Today
TTITLE17=John Rich - The Good Lord And The Man
TTITLE18=RAscal Flatts - BAckwards ( 20058 )
EXTD=August 2009
EXTT0=
EXTT1=
EXTT2=
EXTT3=
EXTT4=
EXTT5=
EXTT6=
EXTT7=
EXTT8=
EXTT9=
EXTT10=
EXTT11=
EXTT12=
EXTT13=
EXTT14=
EXTT15=
EXTT16=
EXTT17=
EXTT18=
PLAYORDER=
